PathFileType	4	(X/Y/Z)	25_coords_data.trc
DataRate	CameraRate	NumFrames	NumMarkers	Units	OrigDataRate	OrigDataStartFrame	OrigNumFrames
30.0	30.0	6	21	m	30.0	1	60
Frame#	Time	THUMB_TIP	THUMB_IP	THUMB_MCP	THUMB_CMC	INDEX_TIP	INDEX_DIP	INDEX_PIP	INDEX_MCP	MIDDLE_TIP	MIDDLE_DIP	MIDDLE_PIP	MIDDLE_MCP	RING_TIP	RING_DIP	RING_PIP	RING_MCP	PINKY_TIP	PINKY_DIP	PINKY_PIP	PINKY_MCP	WRIST
X1	Y1	Z1	X2	Y2	Z2	X3	Y3	Z3	X4	Y4	Z4	X5	Y5	Z5	X6	Y6	Z6	X7	Y7	Z7	X8	Y8	Z8	X9	Y9	Z9	X10	Y10	Z10	X11	Y11	Z11	X12	Y12	Z12	X13	Y13	Z13	X14	Y14	Z14	X15	Y15	Z15	X16	Y16	Z16	X17	Y17	Z17	X18	Y18	Z18	X19	Y19	Z19	X20	Y20	Z20	X21	Y21	Z21
0	-2.749317978547796e-18	0.483813336922249	-0.019147557075840704	-0.1723180906758227	0.485135221416931	-0.021941177323728578	-0.14954863070652802	0.4821027421050803	-0.027922220204808612	-0.11915371015591825	0.4793632053694004	-0.027004940845208214	-0.07463917840447432	0.5080720620728865	-0.015492213740582406	-0.09534143200945433	0.5255866988295589	-0.015382279837676927	-0.09994853672052961	0.5383634373441585	-0.0019377897509189612	-0.11691940800743228	0.4989661350420611	0.014147931852544704	-0.11857416654359942	0.5067506635610189	-0.01644291618847571	-0.08491523241329246	0.5235849609320616	-0.009766970001856445	-0.085110615464426	0.5423144437865014	0.006583973657405484	-0.10031793815636914	0.5029413920822975	0.0276807754059607	-0.1012320915790752	0.5116940989930776	-0.004041671924047363	-0.07265319867478714	0.5285716677873902	0.0010041275700092278	-0.0764856364184463	0.5446017886635878	0.01684518631294374	-0.08708167632009789	0.5085292885172261	0.034612520453005	-0.08286060954188146	0.5224714745231107	-0.000933589162702031	-0.06241058235672026	0.5392116265956202	0.0001710289490711725	-0.0658086888024344	0.5453327504929344	0.019460746216621416	-0.07139891858051173	0.5115972219571173	0.030446866256715777	-0.06491025678675832	0.46228308100186083	-0.023011742144276925	-0.051989820119430985
1	0.03333333333333339	0.48413973261432325	-0.01877319961315793	-0.17197841595324714	0.4854427819744134	-0.021604324158835286	-0.14921250292143506	0.4827689084784401	-0.027758247783107648	-0.11881843072710485	0.47985777186249456	-0.02664425042413865	-0.07431928137020682	0.5084179428781089	-0.014945097224911108	-0.09570180722320976	0.5260483506646112	-0.015012301791789695	-0.0998447777550665	0.5390404218999107	-0.0014669471055223093	-0.11657018610404601	0.4995372847662825	0.0143664000225866	-0.11813331416104256	0.5071010890421374	-0.015670369668865147	-0.08480020643494135	0.5242182604165553	-0.009755864664876657	-0.0846550351684785	0.5428279399944897	0.006816470942115016	-0.09976950070768453	0.5033970501932314	0.027803128641362473	-0.10072503673298261	0.511988217714988	-0.0036050439926740285	-0.07243467035955109	0.5290533731475187	0.0011371291535112737	-0.07579506675211667	0.5449382943871427	0.01719384076739683	-0.08628464578844897	0.5087454670495658	0.03475974946062654	-0.08225488958075267	0.5223833989057172	-0.0015157372297700533	-0.06196961040380422	0.5390788127708669	0.0003963606417296539	-0.06522645513470116	0.5454627291947434	0.019601867617581425	-0.07081270001775708	0.5117289209948629	0.030499490984720268	-0.06416774401476677	0.46228308100186094	-0.023011742144276925	-0.051989820119430985
2	0.06666666666666676	0.4843784844932292	-0.01848272494258818	-0.17170767842727008	0.4856637741989237	-0.021343602015795438	-0.148944475384982	0.4832638371969091	-0.02763091151596464	-0.11855483830857982	0.4802254204820186	-0.02637236948242505	-0.07406805267715333	0.5086946637151053	-0.014514688716535717	-0.0959937275563143	0.5264082933970009	-0.014729885806087917	-0.09975949623021318	0.539552718690379	-0.001110618979453304	-0.11630487285970492	0.49997052148063836	0.014531292099148385	-0.11779362262320447	0.5074047625834746	-0.015118198686463469	-0.08467909371318194	0.5246996684205327	-0.009756322699287279	-0.0843096103097215	0.5432179782266937	0.006983662141301417	-0.09935137415110362	0.5037460724638254	0.02789175811304978	-0.10033529451546341	0.5122074967263562	-0.0032580639116988053	-0.07230244184463863	0.5294125790420778	0.001231392404769216	-0.0752739607309606	0.5451904846675841	0.017448703188551073	-0.0856776381584311	0.5089109542734856	0.034867414580606826	-0.08179112277521561	0.5223386020528946	-0.001957656939238328	-0.061639206677237546	0.5389760370726455	0.0005542369677684622	-0.06478343074105763	0.5455609513832278	0.019694422257802935	-0.07036054734244257	0.5118307275478324	0.03053160211102568	-0.06359955748569635	0.46228308100186094	-0.023011742144276925	-0.051989820119430985
3	0.10000000000000014	0.48455067334154184	-0.018271236760353915	-0.17150610775325748	0.48581931168486003	-0.021154821388347234	-0.14874483589848053	0.4836136464149842	-0.02753887450169079	-0.11836064746825792	0.48048525088473903	-0.026179863393953284	-0.0738830550175037	0.5089038166919875	-0.01419641081936418	-0.09621527135048291	0.5266740055491301	-0.014528576283033612	-0.09969522164987366	0.5399201572208935	-0.0008566111927178488	-0.11611553435876654	0.5002825597396932	0.014649867424203156	-0.1175459471737682	0.5076447915045208	-0.01475532268408375	-0.08455955350559952	0.5250475491306762	-0.009765730626259073	-0.08406155942753768	0.5435004026139189	0.007094582022636908	-0.09904927458720958	0.5040022680374252	0.02795227214550655	-0.10005029842086233	0.5123624117813801	-0.00300153682373705	-0.07222581013389506	0.5296656681637534	0.0012929736975773043	-0.07490059946170757	0.5453711872369588	0.01762277011633684	-0.08523763958753905	0.5090333368521134	0.03494197102559604	-0.08145257112404736	0.5223197065105626	-0.0022758904356842136	-0.061402133723757024	0.5389045559865	0.0006519764297544528	-0.0644632386678522	0.5456333983899317	0.01974584792900036	-0.0700272992426545	0.5119081255777367	0.03054799159409627	-0.0631860188813731	0.46228308100186083	-0.023011742144276925	-0.051989820119430985
4	0.13333333333333353	0.4846721707328844	-0.018131100408606327	-0.17136958795575385	0.48592529073231006	-0.021031085218021328	-0.1486095401005274	0.4838417366348268	-0.027479013176534228	-0.1182302210271069	0.4806545517951062	-0.026056551136018125	-0.073758786886293	0.5090495220617606	-0.013981649816990016	-0.09636853861283357	0.5268552275133221	-0.014399912052840969	-0.09965212050983174	0.5401622713967213	-0.0006921908848204206	-0.11599319747755588	0.5004898189356386	0.014728894625766653	-0.11737982338178965	0.5078164455861541	-0.014549273926965922	-0.08444775667345028	0.5252799314933989	-0.00978225701187796	-0.08389802064704421	0.5436901891336466	0.007157560630466464	-0.09884842337954014	0.5041786507139704	0.02798948378186239	-0.09985700184688051	0.5124616154914208	-0.002831936450325645	-0.07218288031142839	0.5298281347750117	0.0013269438226060082	-0.07465426106883744	0.5454916453545517	0.0177279461011548	-0.08494219281354076	0.5091193117897328	0.0349888924763293	-0.08122279564694346	0.5223159256360997	-0.0024889024765653023	-0.06124346842936168	0.5388632204505035	0.0006970804199151193	-0.0642495534761528	0.5456847924392996	0.01976264885854284	-0.06979773107908471	0.5119655474738457	0.030552311978136903	-0.06290722023260997	0.46228308100186083	-0.023011742144276925	-0.051989820119430985
5	0.1666666666666669	0.48475474674414154	-0.01805286921997251	-0.1712908807764667	0.48599349876855014	-0.020963707984294144	-0.14853143194504403	0.48396932894269	-0.02744711104088493	-0.11815564847659887	0.48074905862920553	-0.025991877240114092	-0.07368765826236512	0.509138156132885	-0.01385868133676249	-0.09645937618982603	0.5269631307281535	-0.014334064777598354	-0.09962864917620873	0.540298330489589	-0.0006042202573747213	-0.11592814762779002	0.5006084703520471	0.014774766381302706	-0.11728382687811378	0.5079231619861027	-0.01446901677304857	-0.08434788081294287	0.5254145896143577	-0.009804638046598702	-0.08380609614929868	0.543801663636027	0.00718040805601361	-0.09873369702197066	0.5042876352721286	0.02800762005732471	-0.09974202420571288	0.5125133273294418	-0.0027414972646742086	-0.0721595741219212	0.5299148365409205	0.0013376661293046377	-0.07451497284996	0.54556196113119	0.017775333813648708	-0.08476926717749211	0.5091749269273697	0.03501294118131848	-0.08108559128403015	0.5223211951248804	-0.002614932541944004	-0.06114980265862513	0.538849069869998	0.0006972587576505873	-0.06412616708600838	0.5457189188639766	0.01975063742741834	-0.06965662412556417	0.5120066413723754	0.030547372217397006	-0.06274313620670946	0.4622830810018609	-0.023011742144276925	-0.051989820119430985
